<svg xmlns="http://www.w3.org/2000/svg" xmlns:xlink="http://www.w3.org/1999/xlink" viewBox="0 0 536.39 552.77"><defs><style>.cls-1{font-size:89.88px;fill:#e0335e;font-family:Langdon, Langdon;}.cls-2{letter-spacing:0em;}.cls-3{fill:#57493d;}.cls-4{fill:url(#linear-gradient);}.cls-5{fill:url(#linear-gradient-2);}.cls-6{fill:url(#linear-gradient-3);}</style><linearGradient id="linear-gradient" x1="515.57" y1="325.06" x2="559.28" y2="325.06" gradientUnits="userSpaceOnUse"><stop offset="0.64" stop-color="#fff"/><stop offset="1" stop-color="#ccc"/></linearGradient><linearGradient id="linear-gradient-2" x1="339.62" y1="326.12" x2="383.33" y2="326.12" xlink:href="#linear-gradient"/><linearGradient id="linear-gradient-3" x1="408.9" y1="482.78" x2="425.74" y2="482.78" xlink:href="#linear-gradient"/></defs><title>logo</title><g id="_2" data-name="2"><text class="cls-1" transform="translate(52.44 530.3)">good<tspan class="cls-2" x="199.62" y="0">D</tspan><tspan x="259.84" y="0">ogs?</tspan></text><path class="cls-3" d="M481,463.84c-10-4.28-22.7-3.66-32.5-3.56-9.81-.1-22.48-.72-32.5,3.56-13.65,5.83-22.28,18.54-10.95,29.88,24.26,28.25,42.18,32.82,43.41,33.11h.07c1.23-.29,19.16-4.86,43.41-33.11C503.3,482.38,494.68,469.67,481,463.84Z" transform="translate(-180.33 -126.83)"/><path class="cls-3" d="M521.22,302.54c-12.14,7.4-18.09,40.19-18.09,40.19s31.87,9.75,44,2.35,20.36-41.57,20.36-41.57S533.36,295.14,521.22,302.54Z" transform="translate(-180.33 -126.83)"/><path class="cls-3" d="M508.2,343.92l-.59.36c.09,0,.19-.24.1-.19a2.79,2.79,0,0,0-.37.58,23.19,23.19,0,0,0-1.37,5.26,47.9,47.9,0,0,1-1.28,5.84,8.38,8.38,0,0,1-.85,1.81l-.49.57.29-.66a9,9,0,0,0,.23-1.86,47.5,47.5,0,0,0-.55-5.77,26.6,26.6,0,0,1-.32-6.31,8.72,8.72,0,0,1,.32-1.47,6.7,6.7,0,0,1,.95-1.63l.51-.6Z" transform="translate(-180.33 -126.83)"/><path class="cls-4" d="M515.57,337.62s1,.15,2.64.28c.83.11,1.85.11,3,.21s2.44.07,3.83,0a41.72,41.72,0,0,0,4.43-.33,14,14,0,0,0,2.35-.38c.79-.2,1.61-.28,2.41-.5a30.18,30.18,0,0,0,4.75-1.75,25.16,25.16,0,0,0,4.48-2.54,12.16,12.16,0,0,0,2-1.62c.64-.6,1.35-1.1,1.94-1.72,1.06-1.37,2.34-2.53,3.29-3.92s1.8-2.79,2.69-4.11c.66-1.42,1.35-2.76,2-4l.93-1.8c.24-.6.46-1.16.68-1.7.41-1.07.83-2,1.16-2.78.68-1.55,1.12-2.44,1.12-2.44s0,1-.14,2.67c-.07.84-.14,1.88-.28,3.07-.06.6-.14,1.24-.21,1.91s-.34,1.33-.53,2.05c-.37,1.43-.8,3-1.31,4.64-.72,1.56-1.49,3.22-2.38,4.92a50.48,50.48,0,0,1-3.42,4.84c-.68.76-1.47,1.44-2.23,2.14a15.83,15.83,0,0,1-2.41,2,25.17,25.17,0,0,1-5.51,2.93,27.15,27.15,0,0,1-5.76,1.58,28.89,28.89,0,0,1-5.5.29c-.86-.06-1.71-.06-2.51-.15l-2.31-.39a31,31,0,0,1-3.93-1,28.64,28.64,0,0,1-2.9-1.13A16.87,16.87,0,0,1,515.57,337.62Z" transform="translate(-180.33 -126.83)"/><path class="cls-3" d="M377.67,303.6c12.14,7.4,18.09,40.19,18.09,40.19s-31.87,9.75-44,2.35-20.36-41.57-20.36-41.57S365.53,296.2,377.67,303.6Z" transform="translate(-180.33 -126.83)"/><path class="cls-3" d="M390.7,345l.58.36c-.08,0-.19-.24-.09-.19a2.46,2.46,0,0,1,.36.58,22.81,22.81,0,0,1,1.37,5.26,45.6,45.6,0,0,0,1.29,5.84,9,9,0,0,0,.84,1.81l.49.57-.28-.66a7.8,7.8,0,0,1-.23-1.86,47.27,47.27,0,0,1,.54-5.77,26.09,26.09,0,0,0,.32-6.31,7.84,7.84,0,0,0-.32-1.47,6.68,6.68,0,0,0-.94-1.63l-.51-.6Z" transform="translate(-180.33 -126.83)"/><path class="cls-5" d="M383.33,338.68s-1,.16-2.65.28c-.82.11-1.85.11-3,.21s-2.44.07-3.82,0a41.64,41.64,0,0,1-4.43-.34,12.92,12.92,0,0,1-2.35-.38c-.79-.2-1.61-.28-2.42-.5a29.57,29.57,0,0,1-4.75-1.75,25.16,25.16,0,0,1-4.48-2.54,13,13,0,0,1-2-1.62c-.63-.6-1.34-1.09-1.94-1.72-1.05-1.37-2.34-2.53-3.28-3.92s-1.81-2.79-2.69-4.1c-.66-1.43-1.36-2.77-2-4-.32-.62-.63-1.22-.92-1.8s-.47-1.16-.68-1.7c-.42-1.07-.83-2-1.17-2.78-.68-1.55-1.11-2.44-1.11-2.44s0,1,.13,2.67c.07.85.14,1.89.28,3.07.07.6.14,1.24.21,1.91s.35,1.33.53,2c.38,1.43.8,3,1.32,4.64.72,1.56,1.49,3.23,2.37,4.92a47.75,47.75,0,0,0,3.43,4.84c.67.76,1.47,1.44,2.23,2.15a15.87,15.87,0,0,0,2.41,2,25.1,25.1,0,0,0,5.5,2.93,27.48,27.48,0,0,0,5.76,1.58,28.09,28.09,0,0,0,5.5.29c.87-.06,1.71-.06,2.52-.15l2.31-.39a31,31,0,0,0,3.93-1,27,27,0,0,0,2.89-1.13A17.48,17.48,0,0,0,383.33,338.68Z" transform="translate(-180.33 -126.83)"/><path class="cls-3" d="M448.53,541s.82.46,2.37,1.23,3.86,1.85,6.84,3a112.85,112.85,0,0,0,10.81,3.63,98.7,98.7,0,0,0,14.23,2.72c1.31.12,2.63.33,4,.43l4.14.15,2.11.09c.71,0,1.43,0,2.15-.07l4.37-.17c1.47-.06,3-.35,4.45-.49s3-.28,4.52-.62,3-.67,4.56-1l2.31-.46c.77-.21,1.52-.47,2.29-.71a83.86,83.86,0,0,0,9.2-3.13l4.59-1.87.58-.23c-.19.09.54-.25-.41.2l.07,0,.15-.08.3-.16,1.19-.64,2.4-1.27a1.79,1.79,0,0,0,.46-.31l.34-.29.69-.56c.46-.39.94-.64,1.43-1.11l1.48-1.48.76-.72c.24-.25.43-.56.66-.83a22.33,22.33,0,0,0,2.48-3.51c.37-.63.77-1.24,1.13-1.88l.92-2.07c2.54-5.52,3.84-12,4.51-18.63q.4-5,.5-10c0-3.35-.08-6.69-.25-10a322.87,322.87,0,0,0-4.43-36.57c-.9-5.4-1.86-10.34-2.7-14.74s-1.64-8.26-2.26-11.43c-1.31-6.38-2.05-10-2.05-10s.51.79,1.4,2.31,2.18,3.74,3.67,6.65a208.21,208.21,0,0,1,10.88,24.86,184.79,184.79,0,0,1,9.59,37.59c.54,3.56.85,7.25,1.08,11,.06,1.89.18,3.78.19,5.71s-.06,3.86-.17,5.83a68.05,68.05,0,0,1-5.39,24l-1.39,2.95c-.53,1-1.14,1.9-1.72,2.85a38,38,0,0,1-4,5.42c-.36.43-.69.88-1.09,1.28L551.25,549l-2.51,2.29a62.93,62.93,0,0,1-6,4l-2.44,1.18-1.22.59-.3.15-.81.37-.69.23-5.47,1.84a75.16,75.16,0,0,1-11,2.84c-.91.18-1.81.4-2.71.56l-2.75.32c-1.82.21-3.62.39-5.4.57s-3.57.07-5.31.11-3.46.09-5.16-.09l-5-.5c-.82-.09-1.63-.15-2.43-.26l-2.36-.47-4.58-.93c-1.48-.37-2.91-.81-4.31-1.23a81.33,81.33,0,0,1-14.61-6,80,80,0,0,1-10.09-6.55l-1.85-1.45-1.55-1.37c-1-.83-1.75-1.61-2.38-2.22A24.71,24.71,0,0,1,448.53,541Z" transform="translate(-180.33 -126.83)"/><path class="cls-3" d="M544.33,160.08a36,36,0,0,1,3.43,1.78,87.56,87.56,0,0,1,9.1,6.15,152.24,152.24,0,0,1,13,11.06,208,208,0,0,1,15.37,16,222,222,0,0,1,16,21A203.15,203.15,0,0,1,616,241.77c2.26,4.66,4.35,9.5,6.22,14.52a158.39,158.39,0,0,1,5,15.5,153.49,153.49,0,0,1,3.44,16.3,142.56,142.56,0,0,1,1.48,16.83,124.85,124.85,0,0,1-.7,17c-.13,1.41-.35,2.81-.53,4.21l-.54,3.9q-.6,3.93-1.19,7.85c-1.58,10.41-3.32,20.57-4.91,30.38s-3.13,19.28-4.42,28.26-2.38,17.46-3.1,25.3a210.68,210.68,0,0,0-1.1,21.37,84.85,84.85,0,0,0,1.53,16.29,33.28,33.28,0,0,0,3.61,9.88,24.83,24.83,0,0,0,1.59,2.34l.62.76-.79-.59a18.1,18.1,0,0,1-2.16-1.95,31.11,31.11,0,0,1-5.93-9.45,72.2,72.2,0,0,1-4.64-16.71c-.56-3.29-1-6.81-1.39-10.53s-.56-7.62-.71-11.69c-.26-8.15-.1-16.95.38-26.2s1.31-19,2.36-29,2.31-20.28,3.66-30.65c.32-2.59.64-5.18,1-7.79l.5-4c.14-1.23.33-2.45.43-3.69a123.58,123.58,0,0,0,.53-14.92,143.51,143.51,0,0,0-3.93-29.75,193.63,193.63,0,0,0-9.08-28.09A269.66,269.66,0,0,0,578,200.62c-4.38-6.54-8.6-12.43-12.55-17.49s-7.56-9.4-10.68-12.82-5.67-6.05-7.52-7.72S544.33,160.08,544.33,160.08Z" transform="translate(-180.33 -126.83)"/><path class="cls-3" d="M552.61,148.84s1.75.45,5,1.46,8,2.52,14,4.76,13.16,5,21.24,8.69c4,1.82,8.33,3.82,12.81,6s9.1,4.69,13.89,7.35,9.74,5.57,14.78,8.71,10.11,6.61,15.25,10.33a223.13,223.13,0,0,1,30.3,26.29c9.62,10.21,18.7,22,25.42,35.58,1.72,3.37,3.21,6.9,4.63,10.46a115.44,115.44,0,0,1,3.48,11.06A105.18,105.18,0,0,1,715.68,291c.23,2,.49,3.81.65,5.91.12,1.8.26,3.54.3,5.6a139.2,139.2,0,0,1-6.13,45,218.83,218.83,0,0,1-16.67,39.68c-6.45,12.23-13.45,23.48-20.18,34s-13.28,20.17-19,29.27a259.6,259.6,0,0,0-14.3,25.33c-3.65,7.8-6.16,14.89-7.29,21a51,51,0,0,0-.86,14.33c.2,1.67.34,3,.52,3.82s.24,1.31.24,1.31l-.46-1.25a36.26,36.26,0,0,1-1.18-3.72A48.33,48.33,0,0,1,630,496.36a84,84,0,0,1,4.82-22.82,206.72,206.72,0,0,1,12-27.53c5-9.74,10.65-20.08,16.65-30.89s12.13-22.21,17.82-34.17c2.82-6,5.51-12.14,8-18.41a201.71,201.71,0,0,0,6.4-19.24,142.62,142.62,0,0,0,4-19.92,116.56,116.56,0,0,0,1-20.13c0-1.55-.19-3.41-.32-5.21-.11-1.5-.33-3.24-.51-4.85a89,89,0,0,0-1.89-9.71,101.79,101.79,0,0,0-6.75-18.64c-5.67-12-13.47-22.94-22-32.75a241.39,241.39,0,0,0-27.21-26.31c-4.65-3.91-9.32-7.56-13.92-11s-9.1-6.71-13.52-9.73-8.72-5.82-12.85-8.44-8.07-5.09-11.83-7.34c-7.52-4.45-14.16-8.25-19.7-11.26s-9.94-5.33-13-6.85Z" transform="translate(-180.33 -126.83)"/><path class="cls-3" d="M466.68,558.08a15,15,0,0,1-1.69,1,32.57,32.57,0,0,1-4.75,2,44.24,44.24,0,0,1-11.12,2.05c-1.39.1-2.81.09-4.23,0a41.91,41.91,0,0,1-4.21-.33,39.11,39.11,0,0,1-4-.68,37.07,37.07,0,0,1-3.71-1,26.77,26.77,0,0,1-3.22-1.18,28.31,28.31,0,0,1-4.58-2.34c-1.06-.64-1.63-1.07-1.63-1.07s.73,0,2,.06c.61.05,1.35.08,2.18.18s1.79.08,2.8.17,2.1.2,3.25.24,2.35.22,3.6.25,2.52.18,3.83.21,2.62.16,3.95.15c2.64.12,5.29.13,7.79.17l6.89,0Z" transform="translate(-180.33 -126.83)"/><path class="cls-3" d="M448.53,540.85s-.59.73-1.85,2c-.63.6-1.4,1.38-2.37,2.21l-1.56,1.38-1.85,1.44a78.9,78.9,0,0,1-10.09,6.56,82.08,82.08,0,0,1-14.61,6c-1.4.42-2.83.87-4.31,1.23l-4.58.94-2.36.46c-.8.11-1.61.18-2.43.27l-5,.5c-1.69.17-3.41.06-5.16.09s-3.53.06-5.31-.12-3.58-.35-5.4-.57l-2.75-.32c-.9-.16-1.8-.37-2.71-.56a75.16,75.16,0,0,1-11-2.84l-5.47-1.84-.69-.23-.81-.37-.3-.15-1.22-.59-2.44-1.18a59.81,59.81,0,0,1-6-4l-2.52-2.29-1.23-1.17c-.4-.41-.73-.86-1.09-1.29a38.2,38.2,0,0,1-4-5.42c-.58-.94-1.18-1.89-1.72-2.85l-1.39-3a68.27,68.27,0,0,1-5.39-24c-.11-2-.11-3.9-.16-5.83s.12-3.82.18-5.71c.23-3.75.54-7.43,1.08-11A185,185,0,0,1,341.7,451a208.94,208.94,0,0,1,10.88-24.86c1.49-2.91,2.82-5.13,3.68-6.65s1.4-2.3,1.4-2.3-.75,3.64-2.05,10c-.63,3.17-1.39,7-2.27,11.43s-1.8,9.35-2.69,14.74A320.76,320.76,0,0,0,346.21,490c-.16,3.31-.26,6.65-.24,10s.22,6.7.49,10c.67,6.61,2,13.11,4.51,18.63l.92,2.07c.36.65.76,1.25,1.13,1.89a23.41,23.41,0,0,0,2.48,3.5c.23.27.42.58.67.83l.76.72,1.47,1.48c.49.48,1,.72,1.43,1.11l.69.56.35.29a1.37,1.37,0,0,0,.45.31l2.4,1.27,1.19.64.3.16.15.08.08,0-.42-.2.58.23,4.59,1.87a83.94,83.94,0,0,0,9.2,3.14c.77.23,1.53.49,2.29.7l2.31.46c1.53.31,3.05.65,4.56,1s3,.4,4.53.62,3,.43,4.45.49l4.36.17c.72,0,1.44.07,2.15.07l2.11-.09,4.14-.15c1.36-.1,2.67-.31,4-.43a98.76,98.76,0,0,0,14.23-2.71,111.69,111.69,0,0,0,10.81-3.64c3-1.16,5.29-2.23,6.84-3S448.53,540.85,448.53,540.85Z" transform="translate(-180.33 -126.83)"/><path class="cls-3" d="M352.73,159.89s-1.07.83-2.91,2.51-4.39,4.31-7.52,7.72-6.69,7.78-10.67,12.82-8.18,11-12.56,17.49a269.1,269.1,0,0,0-25.2,46.86,190.45,190.45,0,0,0-9.08,28.09,142.66,142.66,0,0,0-3.94,29.74,123.74,123.74,0,0,0,.53,14.93c.1,1.23.29,2.46.43,3.68l.5,4c.32,2.61.65,5.21,1,7.79,1.34,10.37,2.59,20.66,3.65,30.65s1.86,19.71,2.36,29,.64,18.05.38,26.2c-.15,4.07-.36,8-.71,11.7s-.83,7.23-1.39,10.52a72,72,0,0,1-4.64,16.72,31.17,31.17,0,0,1-5.93,9.44,16.48,16.48,0,0,1-2.16,1.95l-.79.59.62-.76a23.55,23.55,0,0,0,1.59-2.34,33,33,0,0,0,3.61-9.87,85.77,85.77,0,0,0,1.54-16.3c0-6.35-.37-13.54-1.1-21.37s-1.8-16.33-3.11-25.3-2.81-18.44-4.42-28.26-3.33-20-4.91-30.38c-.39-2.6-.79-5.23-1.19-7.85l-.54-3.9c-.17-1.4-.4-2.8-.53-4.21a128.17,128.17,0,0,1-.7-17,144.72,144.72,0,0,1,1.48-16.83,153.49,153.49,0,0,1,3.44-16.3,161.13,161.13,0,0,1,5-15.5c1.87-5,4-9.86,6.22-14.51a203.8,203.8,0,0,1,14.76-25.72,223.29,223.29,0,0,1,16-21,208,208,0,0,1,15.37-16,154.1,154.1,0,0,1,13-11.06,88.79,88.79,0,0,1,9.1-6.14A34.28,34.28,0,0,1,352.73,159.89Z" transform="translate(-180.33 -126.83)"/><path class="cls-3" d="M344.44,148.65,339.79,151c-3,1.51-7.41,3.86-13,6.84s-12.19,6.81-19.71,11.26c-3.75,2.25-7.71,4.69-11.82,7.34s-8.45,5.41-12.86,8.44-8.94,6.26-13.52,9.74-9.27,7.08-13.92,11a242.24,242.24,0,0,0-27.21,26.31c-8.52,9.82-16.32,20.75-22,32.75a101.79,101.79,0,0,0-6.75,18.64,89.19,89.19,0,0,0-1.89,9.72c-.18,1.6-.4,3.34-.51,4.84-.13,1.8-.29,3.66-.31,5.21a115.51,115.51,0,0,0,1,20.13,142.62,142.62,0,0,0,4,19.92,202.84,202.84,0,0,0,6.4,19.25c2.47,6.26,5.15,12.41,8,18.4,5.69,12,11.86,23.35,17.83,34.17s11.66,21.15,16.64,30.9a206.07,206.07,0,0,1,12,27.52A84,84,0,0,1,267,496.17,48.29,48.29,0,0,1,265.69,511a38.59,38.59,0,0,1-1.17,3.72c-.31.82-.46,1.25-.46,1.25l.23-1.31c.18-.86.33-2.15.52-3.81a51.07,51.07,0,0,0-.86-14.34,90.08,90.08,0,0,0-7.28-21,262,262,0,0,0-14.31-25.34c-5.68-9.1-12.25-18.77-19-29.27s-13.72-21.73-20.18-34a218.53,218.53,0,0,1-16.67-39.68,139.2,139.2,0,0,1-6.13-45c0-2.06.18-3.79.3-5.6.16-2.09.42-3.93.65-5.91a107.61,107.61,0,0,1,2.31-11.46,111.7,111.7,0,0,1,3.49-11.05c1.41-3.57,2.9-7.1,4.62-10.47,6.72-13.62,15.81-25.36,25.42-35.58A223.74,223.74,0,0,1,247.51,196c5.14-3.72,10.24-7.16,15.25-10.33s10-6,14.78-8.7,9.43-5.14,13.89-7.36,8.77-4.2,12.82-6c8.08-3.67,15.28-6.49,21.24-8.7s10.71-3.73,13.95-4.76S344.44,148.65,344.44,148.65Z" transform="translate(-180.33 -126.83)"/><path class="cls-3" d="M362.49,143.73s2.52-1.12,7-2.9c2.24-.89,4.94-2,8.07-3.14s6.84-2.12,10.85-3.24l6.27-1.75,6.78-1.39c4.67-.93,9.6-2,14.77-2.48s10.48-1.35,15.94-1.53l8.22-.43c2.76-.08,5.53,0,8.3,0s5.54,0,8.3.15l8.21.5,4.06.27,4,.45,7.85.92c5.12.78,10.07,1.56,14.72,2.51l6.76,1.47c2.18.48,4.26,1.09,6.26,1.59,4,1,7.64,2.16,10.84,3.16s6,2,8.21,2.9c4.51,1.73,7,3,7,3l-7.47-1.11-8.53-1.17-11.05-1.34c-4-.5-8.43-.85-13.05-1.33-2.31-.26-4.7-.41-7.12-.6s-4.91-.45-7.43-.59c-5.06-.21-10.26-.73-15.56-.82l-8-.29c-2.68-.11-5.37,0-8.06-.07s-5.38-.1-8.06-.06l-8,.21-4,.09c-1.31,0-2.62,0-3.91.15l-7.67.45c-5,.17-9.89.73-14.51,1.15l-6.75.58-6.23.82c-4,.59-7.72.92-11,1.4s-6.16,1.06-8.54,1.45C365.23,143.41,362.49,143.73,362.49,143.73Z" transform="translate(-180.33 -126.83)"/><path class="cls-3" d="M511.2,491.35s11.4.37,28.35,2.65c4.24.56,8.82,1.22,13.65,2s9.93,1.68,15.16,2.77,10.66,2.2,16.11,3.55,11,2.79,16.49,4.32,10.94,3.32,16.26,5.15c2.67.9,5.31,1.82,7.88,2.83s5.13,2,7.6,3c5,2,9.71,4.18,14.12,6.37s8.52,4.41,12.19,6.65c1.86,1.07,3.6,2.18,5.22,3.28s3.19,2.11,4.57,3.18,2.74,2,3.91,2.93l3.17,2.68a28.83,28.83,0,0,1,2.47,2.24l1.76,1.73,1.46,1.43-1.65-1.21c-1.1-.76-2.59-2-4.69-3.35l-3.42-2.26-4.12-2.49c-1.46-.91-3.07-1.77-4.78-2.68s-3.46-1.9-5.37-2.81-3.85-1.94-5.95-2.84-4.19-2-6.44-2.87-4.5-1.93-6.89-2.82S633.49,522.9,631,522c-4.93-1.89-10.14-3.56-15.4-5.32s-10.69-3.35-16.11-4.91-10.88-3.09-16.27-4.46-10.69-2.77-15.86-4l-14.91-3.45L539,497C522.39,493.49,511.2,491.35,511.2,491.35Z" transform="translate(-180.33 -126.83)"/><path class="cls-3" d="M511.66,506.55l1.67,0c1.09,0,2.7.05,4.73.19s4.51.34,7.34.61,6,.64,9.47,1.24l5.4.86c1.86.33,3.76.75,5.73,1.14,4,.74,8.06,1.78,12.31,2.85,2.14.51,4.26,1.2,6.43,1.81s4.38,1.21,6.56,2l6.57,2.29,3.31,1.15,3.27,1.3c4.33,1.79,8.68,3.53,12.82,5.59,2.09,1,4.15,2,6.18,3s3.93,2.19,5.85,3.25,3.81,2.12,5.63,3.19,3.5,2.31,5.18,3.42a100,100,0,0,1,9.25,6.57c2.76,2.17,5.26,4.2,7.46,6s3.85,3.69,5.31,5.12c2.92,2.85,4.53,4.51,4.53,4.51s-1.92-1.33-5.21-3.71l-5.88-4.31c-2.39-1.51-5.08-3.21-8-5.1s-6.16-3.7-9.57-5.69c-1.72-1-3.46-2-5.28-3s-3.74-1.89-5.67-2.86-3.85-2-5.85-3-4.07-1.8-6.12-2.75c-4.07-2-8.36-3.61-12.63-5.31l-3.18-1.32-3.23-1.17-6.42-2.33c-4.3-1.42-8.51-2.89-12.63-4.17s-8.11-2.51-11.95-3.49-7.44-2-10.81-2.86-6.46-1.54-9.2-2.23-5.15-1.18-7.15-1.56l-4.62-1Z" transform="translate(-180.33 -126.83)"/><path class="cls-3" d="M511.2,521.52l1.32,0c.86,0,2.13.08,3.74.23s3.56.34,5.79.65,4.74.67,7.45,1.25,5.65,1.16,8.73,1.94,6.3,1.69,9.62,2.72l5,1.7,2.55.87,2.53,1L563,534c1.71.69,3.37,1.52,5.07,2.28s3.35,1.57,5,2.41l4.85,2.62c3.26,1.63,6.25,3.66,9.19,5.51a94.76,94.76,0,0,1,8.21,5.73l3.71,2.78,3.26,2.84c2.09,1.83,4,3.49,5.62,5.06s2.91,3.06,4,4.24c2.19,2.36,3.4,3.74,3.4,3.74s-1.52-1.06-4.11-3c-1.28-1-2.86-2.1-4.61-3.46s-3.94-2.62-6.16-4.19l-3.5-2.39-3.87-2.38c-2.65-1.64-5.41-3.39-8.4-5l-4.49-2.53c-.75-.45-1.53-.85-2.33-1.23l-2.35-1.22-4.77-2.47c-1.62-.79-3.28-1.51-4.91-2.27s-3.24-1.6-4.9-2.3l-5-2.1c-3.26-1.44-6.55-2.65-9.69-3.93s-6.26-2.35-9.21-3.35-5.75-2-8.35-2.78c-5.2-1.68-9.59-2.94-12.67-3.81l-3.6-1Z" transform="translate(-180.33 -126.83)"/><path class="cls-3" d="M380.4,486.91s-11.2,2.14-27.84,5.66l-13.42,2.91-14.91,3.45c-5.17,1.19-10.46,2.61-15.86,4s-10.84,2.88-16.26,4.46-10.84,3.16-16.11,4.91-10.47,3.43-15.41,5.32c-2.49.88-4.89,1.87-7.26,2.79s-4.66,1.88-6.89,2.82-4.36,1.94-6.44,2.88-4.05,1.9-5.94,2.84-3.68,1.88-5.38,2.8-3.32,1.77-4.77,2.68l-4.13,2.49-3.42,2.26c-2.09,1.34-3.59,2.59-4.69,3.35L210,543.7l1.45-1.43,1.76-1.72a28.81,28.81,0,0,1,2.47-2.25l3.17-2.67c1.17-1,2.51-1.89,3.91-2.94s2.93-2.1,4.57-3.18,3.36-2.21,5.22-3.28c3.68-2.24,7.77-4.49,12.19-6.65s9.13-4.38,14.12-6.37q3.72-1.55,7.6-3c2.57-1,5.21-1.93,7.88-2.83,5.33-1.82,10.79-3.52,16.27-5.14s11-3,16.48-4.33,10.87-2.48,16.11-3.54,10.33-2,15.16-2.78,9.42-1.47,13.65-2C369,487.28,380.4,486.91,380.4,486.91Z" transform="translate(-180.33 -126.83)"/><path class="cls-3" d="M379.93,502.11l-1.64.32-4.62.95c-2,.39-4.39,1-7.15,1.56s-5.84,1.35-9.2,2.23-7,1.8-10.8,2.86-7.81,2.33-12,3.5-8.33,2.74-12.62,4.16L315.51,520l-3.23,1.17-3.18,1.32c-4.26,1.71-8.56,3.35-12.62,5.31-2.05.95-4.1,1.87-6.13,2.76s-3.93,2-5.85,2.94-3.79,2-5.66,2.86-3.56,2-5.28,3c-3.41,2-6.74,3.72-9.58,5.69s-5.56,3.59-8,5.1l-5.88,4.32c-3.29,2.37-5.22,3.71-5.22,3.71s1.62-1.66,4.53-4.52c1.46-1.42,3.23-3.18,5.32-5.12s4.69-3.83,7.46-6a99.84,99.84,0,0,1,9.24-6.57c1.68-1.1,3.39-2.29,5.18-3.41s3.72-2.11,5.63-3.19,3.85-2.2,5.86-3.25,4.08-2,6.17-3c4.14-2.06,8.49-3.8,12.83-5.59l3.26-1.3,3.31-1.15,6.58-2.29c2.17-.76,4.39-1.34,6.55-2s4.3-1.3,6.43-1.81c4.25-1.07,8.36-2.11,12.31-2.85,2-.39,3.88-.81,5.74-1.14l5.39-.85c3.45-.61,6.66-.89,9.47-1.25s5.3-.5,7.34-.6,3.64-.17,4.73-.2Z" transform="translate(-180.33 -126.83)"/><path class="cls-3" d="M380.4,517.08l-1.29.33-3.59,1c-3.09.87-7.48,2.13-12.67,3.81-2.61.8-5.39,1.8-8.35,2.78s-6,2.23-9.21,3.35c-3.15,1.29-6.44,2.49-9.7,3.93l-4.94,2.1c-1.66.7-3.27,1.54-4.9,2.3s-3.3,1.48-4.91,2.27l-4.77,2.47-2.36,1.22c-.8.38-1.58.79-2.33,1.23l-4.49,2.53c-3,1.62-5.75,3.37-8.39,5l-3.87,2.39-3.5,2.39c-2.23,1.56-4.36,2.9-6.17,4.19s-3.32,2.5-4.61,3.46c-2.58,1.9-4.11,3-4.11,3s1.21-1.38,3.4-3.75c1.1-1.18,2.44-2.62,4-4.23s3.53-3.23,5.62-5.06l3.27-2.85,3.71-2.77a91,91,0,0,1,8.2-5.74c2.95-1.85,5.93-3.87,9.19-5.51l4.86-2.62c1.64-.83,3.33-1.61,5-2.41s3.35-1.58,5.06-2.27l5.11-2.07,2.52-1,2.55-.87,5-1.7c3.31-1,6.53-2,9.61-2.73s6-1.45,8.74-1.94,5.23-.91,7.45-1.25,4.18-.51,5.78-.64,2.88-.2,3.74-.24Z" transform="translate(-180.33 -126.83)"/><path class="cls-6" d="M424.5,467.28l-.34.35c-.23.22-.55.57-1,.95l-.72.64c-.23.26-.5.5-.77.78l-.88.83-.92.95c-.67.63-1.27,1.39-1.93,2.12-.28.4-.59.78-.9,1.18s-.53.82-.79,1.24a12.07,12.07,0,0,0-1.07,2.61,8,8,0,0,0-.29,2.71,10.65,10.65,0,0,0,.48,2.89,21.38,21.38,0,0,0,1.09,2.94c.43,1,.94,1.9,1.43,2.8s1,1.76,1.5,2.54c1,1.59,1.85,2.95,2.46,3.92s1,1.55,1,1.55-.17,0-.47-.14a13.19,13.19,0,0,1-1.29-.5,21,21,0,0,1-4.23-2.45,24.63,24.63,0,0,1-2.53-2.14,21.62,21.62,0,0,1-2.45-2.89,16.65,16.65,0,0,1-2-3.74,13.72,13.72,0,0,1-1-4.55,14.16,14.16,0,0,1,.14-2.43,12,12,0,0,1,.63-2.34,13,13,0,0,1,2.31-3.91c.49-.52,1-1,1.46-1.47s1-.81,1.52-1.18a18.75,18.75,0,0,1,3-1.62c.49-.2.93-.41,1.37-.56s.88-.28,1.28-.39.77-.23,1.12-.3l1-.16c.57-.11,1-.14,1.35-.19Z" transform="translate(-180.33 -126.83)"/></g></svg>